<svg width="200" height="300" viewBox="0 0 200 300" xmlns="http://www.w3.org/2000/svg">
  <defs>
    <linearGradient id="matrixGreen" x1="0%" y1="0%" x2="100%" y2="100%">
      <stop offset="0%" style="stop-color:#00ff00;stop-opacity:1" />
      <stop offset="100%" style="stop-color:#008800;stop-opacity:1" />
    </linearGradient>
    <filter id="glow">
      <feGaussianBlur stdDeviation="3" result="coloredBlur"/>
      <feMerge> 
        <feMergeNode in="coloredBlur"/>
        <feMergeNode in="SourceGraphic"/>
      </feMerge>
    </filter>
  </defs>
  
  <!-- Background -->
  <rect width="200" height="300" fill="#000000"/>
  
  <!-- Matrix rain effect -->
  <text x="10" y="20" fill="#00ff00" font-family="monospace" font-size="8" opacity="0.3">01001101</text>
  <text x="150" y="40" fill="#00ff00" font-family="monospace" font-size="8" opacity="0.3">01110010</text>
  <text x="30" y="280" fill="#00ff00" font-family="monospace" font-size="8" opacity="0.3">01110000</text>
  <text x="170" y="260" fill="#00ff00" font-family="monospace" font-size="8" opacity="0.3">01101000</text>
  
  <!-- Morpheus silhouette -->
  <g filter="url(#glow)">
    <!-- Head -->
    <ellipse cx="100" cy="80" rx="35" ry="45" fill="none" stroke="url(#matrixGreen)" stroke-width="2"/>
    
    <!-- Sunglasses -->
    <ellipse cx="85" cy="75" rx="12" ry="8" fill="#00ff00" opacity="0.8"/>
    <ellipse cx="115" cy="75" rx="12" ry="8" fill="#00ff00" opacity="0.8"/>
    <line x1="97" y1="75" x2="103" y2="75" stroke="#00ff00" stroke-width="2"/>
    
    <!-- Body outline -->
    <path d="M 70 125 Q 100 120 130 125 L 140 200 Q 100 210 60 200 Z" fill="none" stroke="url(#matrixGreen)" stroke-width="2"/>
    
    <!-- Arms -->
    <path d="M 70 140 Q 40 150 30 180" fill="none" stroke="url(#matrixGreen)" stroke-width="2"/>
    <path d="M 130 140 Q 160 150 170 180" fill="none" stroke="url(#matrixGreen)" stroke-width="2"/>
    
    <!-- Hands holding pills -->
    <circle cx="25" cy="185" r="8" fill="none" stroke="#ff0000" stroke-width="2"/>
    <text x="20" y="190" fill="#ff0000" font-size="12">💊</text>
    
    <circle cx="175" cy="185" r="8" fill="none" stroke="#0066ff" stroke-width="2"/>
    <text x="170" y="190" fill="#0066ff" font-size="12">💊</text>
    
    <!-- Coat -->
    <path d="M 65 125 L 55 250 L 75 260 L 125 260 L 145 250 L 135 125" fill="none" stroke="url(#matrixGreen)" stroke-width="1.5"/>
  </g>
  
  <!-- Quote -->
  <text x="100" y="280" text-anchor="middle" fill="#00ff00" font-family="monospace" font-size="10" opacity="0.8">
    "This is your last chance"
  </text>
</svg>